<svg width="128" height="30" fill="none" xmlns="http://www.w3.org/2000/svg"><g clip-path="url(#clip0_2_39)"><path fill-rule="evenodd" clip-rule="evenodd" d="M23.868 13.69l-2.804-2.521c-.28-.252-.747-.28-1.033-.065-.48.36-.958.72-1.435 1.08l-1.138.86.418 1.771 2.18 2.05c.289.272.754.304 1.032.068l1.39-1.179c.463-.392.929-.784 1.393-1.178.277-.235.277-.634-.003-.887zm-8.983-8.019l-2.806-2.52c-.278-.251-.757-.316-1.064-.145C10 3.57 8.947 4.303 7.963 4.85c-.583.567.02.771.575 1.381l.013.029c.725.682 1.53 1.285 2.256 1.967.031.029.064.055.098.08l.406.164a.804.804 0 00.56-.094l1.491-.95c.496-.317.991-.634 1.489-.95.297-.19.315-.553.034-.806z" fill="#F0C846"/><path fill-rule="evenodd" clip-rule="evenodd" d="M19.48 9.682l-2.805-2.52c-.28-.252-.756-.301-1.051-.108l-1.482.968-1.484.966a.506.506 0 00-.04.03l3.054 1.166c1.2.64 1.411 1.338 1.62 1.945l.729-.54 1.442-1.064c.287-.212.297-.591.017-.843zm8.994.768l-2.815-2.447c-.28-.244-.755-.27-1.047-.061l-1.466 1.053-1.464 1.052c-.293.211-.297.594-.014.852l2.839 2.582c.284.258.752.286 1.043.062.483-.372.968-.748 1.453-1.12l1.454-1.12c.288-.223.298-.609.017-.853zm-8.952-7.78L16.707.223c-.282-.245-.754-.296-1.052-.118l-1.495.897-1.494.895c-.297.178-.312.534-.029.791.947.86 1.894 1.72 2.84 2.582.284.258.757.312 1.052.12l1.482-.963c.494-.32.986-.642 1.482-.964.295-.191.31-.55.029-.795z" fill="#3261A3"/><path fill-rule="evenodd" clip-rule="evenodd" d="M23.997 6.56l-2.814-2.447c-.281-.244-.757-.283-1.051-.09-.493.327-.987.652-1.48.976l-1.48.973c-.295.194-.303.564-.02.822.945.86 1.894 1.72 2.84 2.582.284.257.752.298 1.044.09.49-.346.978-.696 1.467-1.042l1.47-1.042c.292-.207.305-.578.024-.822z" fill="#F0C846"/><path fill-rule="evenodd" clip-rule="evenodd" d="M22.115 22.18l.671-1.735c.068-.173.299-.45.512-.614a3029.869 3029.869 0 012.143-1.649c.213-.164.31-.138.216.058l-.933 1.953a2.015 2.015 0 01-.51.613l-.94.714-.94.714c-.187.143-.286.118-.22-.055zm2.135-5.514l.672-1.734c.067-.174.348-.49.622-.706l1.378-1.08 1.377-1.08c.275-.216.423-.233.33-.038l-.934 1.953c-.093.196-.372.512-.621.707l-1.245.97-1.247.97c-.248.193-.399.21-.332.038zm-1.068 2.756l.672-1.733c.067-.174.323-.472.567-.662l1.225-.952 1.224-.952c.243-.19.366-.185.273.011-.312.65-.622 1.302-.934 1.953-.093.195-.347.49-.565.658l-1.092.842-1.094.843c-.218.168-.343.166-.276-.008zm-3.396 3.233l.919-.74 1.161-.936c.232-.187.363-.197.293-.024l-.7 1.73c-.07.173-.302.456-.516.63l-.831.68-.163-.69a1.86 1.86 0 00-.052-.181l-.11-.47zm.364-2.674l.517-1.606c.051-.161.32-.468.595-.684l1.377-1.08 1.377-1.08c.274-.215.443-.251.372-.078l-.7 1.73c-.07.173-.337.48-.593.683l-1.285 1.018-1.285 1.019c-.256.202-.426.238-.374.078zm-.304.948c.052-.16.303-.458.556-.659l1.27-1.007 1.27-1.008c.253-.202.401-.224.331-.05l-.7 1.73c-.07.172-.32.466-.553.655l-1.177.945-1.11.893-.134-.57c.072-.3.143-.605.247-.93zM5.719 21.3l-2.664-1.34c-.267-.136-.417-.003-.338.287.265.976.527 1.95.79 2.923.08.293.36.645.624.788l2.65 1.432c.266.143.42.018.342-.283l-.778-3.015c-.078-.3-.359-.656-.626-.791zm5.923-6.677l-2.698-1.117c-.269-.11-.427.058-.352.368l.761 3.134c.077.313.356.668.625.79l2.684 1.204c.27.121.429-.045.354-.366-.25-1.074-.498-2.148-.746-3.223-.075-.322-.359-.678-.628-.79zm1.274 5.473l-2.68-1.227c-.268-.122-.424.033-.348.346l.759 3.133c.076.313.356.675.623.808l2.668 1.32c.268.132.424-.023.35-.346-.248-1.074-.499-2.148-.747-3.224-.074-.323-.355-.686-.625-.81zm1.275 5.472c-.886-.448-1.776-.893-2.663-1.34-.266-.134-.423.012-.347.325.255 1.045.508 2.09.761 3.135.076.311.354.682.619.825l2.65 1.431c.265.144.422 0 .348-.32l-.746-3.224c-.075-.323-.354-.697-.622-.832zm-6.838-12.72c-.9-.374-1.8-.746-2.699-1.117-.268-.111-.426.047-.35.35l.777 3.027c.078.302.36.648.628.769.895.4 1.79.804 2.684 1.206.27.122.425-.036.35-.345-.255-1.04-.51-2.08-.763-3.12-.075-.31-.358-.659-.627-.77zm1.301 5.295c-.894-.409-1.787-.82-2.68-1.23-.268-.122-.425.023-.347.328.258 1.008.519 2.016.777 3.027.077.302.357.658.624.79.888.437 1.779.878 2.668 1.319.267.132.422-.013.345-.325l-.762-3.12c-.076-.31-.356-.666-.625-.789zm1.302 5.293c-.89-.447-1.778-.898-2.665-1.344-.266-.133-.42.007-.342.31l.775 3.024c.078.303.358.666.622.808.883.476 1.766.956 2.65 1.434.266.144.42.008.343-.303l-.762-3.119c-.076-.31-.356-.676-.621-.81zM3.063 11.072L.367 9.955c-.27-.111-.425.04-.347.33.264.976.53 1.95.793 2.925.078.29.361.628.628.748.894.402 1.789.806 2.684 1.207.269.12.425-.028.348-.327l-.779-3.015c-.076-.299-.362-.639-.63-.75zm1.329 5.118l-2.681-1.232c-.269-.123-.42.017-.342.31l.791 2.922c.08.292.36.638.625.77.889.438 1.779.88 2.668 1.318.267.132.422-.006.345-.304-.26-1.007-.52-2.01-.778-3.015-.078-.303-.362-.647-.628-.77z" fill="#3261A3"/><path fill-rule="evenodd" clip-rule="evenodd" d="M15.223 11.294l-2.595-1.052c-.259-.105-.69-.026-.951.173l-1.318 1.001-1.317 1c-.262.2-.262.45.002.556l2.631 1.066c.263.106.691.029.95-.172l1.299-1.007 1.299-1.008c.258-.201.26-.452 0-.557zM6.971 7.95L4.375 6.9c-.258-.105-.693-.029-.964.167l-1.36.985-1.36.984c-.27.197-.28.443-.017.55l2.632 1.064c.262.107.696.033.964-.165l1.34-.99 1.343-.993c.267-.197.277-.447.018-.551z" fill="#F0C846"/><path fill-rule="evenodd" clip-rule="evenodd" d="M11.097 9.622L8.502 8.571c-.26-.106-.693-.028-.96.17-.448.33-.893.662-1.34.993l-1.337.992c-.266.198-.27.446-.006.553l2.631 1.065c.264.106.691.03.955-.169l1.32-.999c.44-.332.88-.666 1.32-1 .262-.199.27-.449.011-.554z" fill="#3261A3"/><path fill-rule="evenodd" clip-rule="evenodd" d="M19.559 26.883l-.78-3.307c-.077-.33-.351-.46-.604-.288l-1.274.864c-.425.287-.85.574-1.273.862-.254.172-.397.58-.32.905l.775 3.255c.077.325.347.454.602.287l1.276-.836 1.276-.837c.253-.167.4-.575.322-.905zM17.08 16.367l-.779-3.307c-.078-.331-.349-.447-.601-.264l-1.269.925-1.267.92c-.253.185-.396.6-.319.924l.775 3.256c.077.324.346.445.6.266.422-.299.846-.597 1.269-.895l1.271-.898c.253-.178.399-.597.32-.927z" fill="#40669C"/><path fill-rule="evenodd" clip-rule="evenodd" d="M18.32 21.626l-.78-3.307c-.078-.331-.35-.456-.604-.277l-1.271.893c-.423.297-.848.593-1.27.89-.254.18-.396.591-.319.916l.774 3.255c.078.326.347.449.601.275l1.273-.865 1.273-.867c.254-.172.4-.583.322-.913z" fill="#F0C846"/><path d="M40.35 10.109h-3.565v12.756h3.697V18.73c.77.842 1.577 1.272 2.778 1.272 2.477 0 4.072-1.945 4.072-4.994 0-3.104-1.67-5.143-4.204-5.143-1.145 0-2.083.392-2.777 1.29V10.11zm1.633 2.712c1.089 0 1.633.73 1.633 2.188 0 1.44-.544 2.189-1.614 2.189s-1.632-.749-1.632-2.17c0-1.44.563-2.207 1.613-2.207zm12.13-2.993c-3.171 0-5.367 2.077-5.367 5.106 0 3.03 2.177 5.107 5.33 5.107 3.134 0 5.31-2.114 5.31-5.144 0-3.011-2.158-5.069-5.273-5.069zm-.075 2.675c1.389 0 1.633 1.31 1.633 2.394 0 1.066-.207 2.488-1.595 2.488-1.37 0-1.614-1.385-1.614-2.45 0-1.628.525-2.432 1.576-2.432zm16.203.43c-.207-2.525-2.308-3.105-4.599-3.105-3.058 0-4.71 1.067-4.71 3.05 0 2.374 2.233 2.711 4.054 3.104 1.332.3 1.895.337 1.895.935 0 .468-.431.767-1.163.767-.957 0-1.389-.337-1.483-1.141h-3.51c.226 2.693 2.422 3.46 4.917 3.46 3.06 0 4.88-1.253 4.88-3.385 0-2.263-1.99-2.75-3.828-3.086-.45-.075-2.14-.169-2.14-.917 0-.393.357-.58 1.013-.58.864 0 1.183.206 1.314.898h3.36zm8.45-2.824h-2.007V7.135h-3.697v2.974h-1.595v2.3h1.595v4.32c0 2.339 1.05 3.162 3.754 3.162.769 0 1.107-.019 1.95-.075V17.14c-.242.038-.524.038-.768.038-1.145 0-1.24-.374-1.24-1.328v-3.442h2.009v-2.3z" fill="#3261A3"/><path d="M83.766 10.109H80.2v9.65h3.716v-5.367c0-.823.263-1.683 1.257-1.683.939 0 1.164.692 1.164 1.477v5.574h3.697v-5.368c0-.842.244-1.627 1.238-1.627.995 0 1.183.767 1.183 1.552v5.443h3.753v-6.34c0-2.189-1.37-3.592-3.547-3.592-1.332 0-2.402.524-3.115 1.534-.544-1.122-1.464-1.534-2.74-1.534-1.332 0-2.346.505-3.04 1.515V10.11zm19.655-.28c-3.172 0-5.367 2.075-5.367 5.105 0 3.03 2.177 5.107 5.33 5.107 3.133 0 5.31-2.114 5.31-5.144 0-3.011-2.158-5.069-5.273-5.069zm-.075 2.674c1.389 0 1.633 1.31 1.633 2.394 0 1.066-.206 2.488-1.595 2.488-1.371 0-1.614-1.385-1.614-2.45 0-1.628.525-2.432 1.576-2.432zm16.202.43c-.206-2.525-2.308-3.105-4.598-3.105-3.058 0-4.71 1.067-4.71 3.05 0 2.374 2.233 2.711 4.054 3.104 1.332.3 1.895.337 1.895.935 0 .468-.432.767-1.164.767-.956 0-1.388-.337-1.482-1.141h-3.509c.225 2.693 2.421 3.46 4.916 3.46 3.06 0 4.88-1.253 4.88-3.385 0-2.263-1.99-2.75-3.828-3.086-.451-.075-2.14-.169-2.14-.917 0-.393.357-.58 1.013-.58.864 0 1.183.206 1.314.898h3.359zM128 10.109h-2.008V7.135h-3.697v2.974H120.7v2.3h1.595v4.32c0 2.339 1.051 3.162 3.754 3.162.769 0 1.107-.019 1.951-.075V17.14c-.244.038-.526.038-.769.038-1.145 0-1.239-.374-1.239-1.328v-3.442H128v-2.3z" fill="#E9C95F"/></g><defs><clipPath id="clip0_2_39"><path fill="#fff" d="M0 0h128v30H0z"/></clipPath></defs></svg>