<svg width="20" height="10" fill="none" xmlns="http://www.w3.org/2000/svg"><path d="M19.647 6.263a.75.75 0 01-1.026 1.026.75.75 0 01-.277-.276L16.619 4.03a11.52 11.52 0 01-3.3 1.528l.543 3.085a.76.76 0 01-.609.872h-.131a.75.75 0 01-.74-.62l-.535-3.037a12.698 12.698 0 01-3.703.01l-.535 3.037a.75.75 0 01-.74.619h-.132a.76.76 0 01-.609-.872l.553-3.094a11.447 11.447 0 01-3.31-1.528l-1.734 3a.769.769 0 01-.646.375.75.75 0 01-.647-1.125l1.828-3.168a13.67 13.67 0 01-1.753-1.81A.74.74 0 01.53.253a.74.74 0 011.05.103 12.066 12.066 0 001.997 1.969h.01A10.284 10.284 0 0010 4.5c2.747 0 4.856-.966 6.403-2.166h.019c.74-.576 1.41-1.237 1.997-1.968a.741.741 0 011.05-.113.74.74 0 01.112 1.05 13.663 13.663 0 01-1.753 1.81l1.819 3.15z" fill="#2B689B"/></svg>